# xmcd
# 
# Track frame offsets:
#     150
#     23111
#     41614
# 
# Disc length: 762
# 
# Revision: 2
# Processed by: cddbd v1.5.2PL0 Copyright (c) Steve Scherf et al.
# Submitted via: fre:ac v1.0.17
# 
DISCID=1b02f803
DTITLE=AEROSMITH - MUSIC FROM ANOTHER DIMENSION! - BONUS TRACKS
DYEAR=2012
DGENRE=Hard Rock
TTITLE0=Up On The Mountain
TTITLE1=Oasis In The Night
TTITLE2=Sunny Side Of Love
EXTD=
EXTT0=
EXTT1=
EXTT2=
PLAYORDER=
